# xmcd CD database file
#
# Track frame offsets:
#	150
#	17760
#	33116
#	50883
#	63857
#	79921
#	96046
#	108281
#	117518
#	140002
#	153275
#	166791
#	176563
#	189342
#	211450
#
# Disc length: 3479 seconds
#
# Revision: 0
# Processed by: cddbd v1.5.1PL0 Copyright (c) Steve Scherf et al.
# Submitted via: CDex 1.51
#
DISCID=c40d950f
DTITLE=Bouto and Etenne C - Djezz
DYEAR=2004
DGENRE=Jazz
TTITLE0=Bouto and Etienne C - Open Spring
TTITLE1=Bouto and Etienne C - Athunay Café
TTITLE2=Bouto and Etienne C - Forbidden Vinyl
TTITLE3=Bouto and Etienne C - Matrix Echoes
TTITLE4=Bouto and Etienne C - Fucking Blue Boyz
TTITLE5=Bouto and Etienne C - Me, My Snare And I
TTITLE6=Bouto and Etienne C - Orage Blues part 1
TTITLE7=Bouto and Etienne C - Orage Blues part 2
TTITLE8=Bouto and Etienne C - Well Splitted
TTITLE9=Bouto and Etienne C - OchoOochO
TTITLE10=Bouto and Etienne C - Le Techno-trompette
TTITLE11=Bouto and Etienne C - Introducing Djezz
TTITLE12=Bouto and Etienne C - Djezz
TTITLE13=Bouto and Etienne C - Tahiti Slide
TTITLE14=Bouto and Etienne C - Awakening
EXTD=YEAR: 2004
EXTT0=
EXTT1=
EXTT2=
EXTT3=
EXTT4=
EXTT5=
EXTT6=
EXTT7=
EXTT8=
EXTT9=
EXTT10=
EXTT11=
EXTT12=
EXTT13=
EXTT14=
PLAYORDER=
